<?xml version="1.0" encoding="UTF-8"?>
<!DOCTYPE svg PUBLIC "-//W3C//DTD SVG 1.1//EN" "http://www.w3.org/Graphics/SVG/1.1/DTD/svg11.dtd">
<!-- Creator: CorelDRAW X5 -->
<svg xmlns="http://www.w3.org/2000/svg" xml:space="preserve" width="1.34006cm" height="1.0613cm" style="shape-rendering:geometricPrecision; text-rendering:geometricPrecision; image-rendering:optimizeQuality; fill-rule:evenodd; clip-rule:evenodd"
viewBox="0 0 279 221"
 xmlns:xlink="http://www.w3.org/1999/xlink">
 <defs>
  <style type="text/css">
   <![CDATA[
    .str0 {stroke:#FEFEFE;stroke-width:14.6989}
    .fil0 {fill:#718FC8}
    .fil1 {fill:#373435;fill-rule:nonzero}
    .fil2 {fill:#FEFEFE;fill-rule:nonzero}
   ]]>
  </style>
 </defs>
 <g id="Camada_x0020_1">
  <metadata id="CorelCorpID_0Corel-Layer"/>
  <path class="fil0 str0" d="M57 7l166 0c27,0 49,22 49,49l0 108c0,27 -22,49 -49,49l-166 0c-27,0 -49,-22 -49,-49l0 -108c0,-27 22,-49 49,-49z"/>
  <path class="fil1" d="M57 0l166 0c16,0 30,6 40,17 10,10 17,24 17,40l0 108c0,16 -6,30 -17,40 -10,10 -24,17 -40,17l-166 0c-16,0 -30,-6 -40,-17 -10,-10 -17,-24 -17,-40l0 -108c0,-16 6,-30 17,-40 10,-10 24,-17 40,-17zm166 15l-166 0c-12,0 -22,5 -30,12 -8,8 -12,18 -12,30l0 108c0,12 5,22 12,30 8,8 18,12 30,12l166 0c12,0 22,-5 30,-12 8,-8 12,-18 12,-30l0 -108c0,-12 -5,-22 -12,-30 -8,-8 -18,-12 -30,-12z"/>
  <path class="fil2" d="M139 175l-19 0 -4 -24 -24 0 -4 24 -19 0 0 0 25 -128 20 0 25 128zm-26 -41l-9 -58 -9 58 19 0zm100 29c0,8 -4,12 -12,12l-40 0c-8,0 -11,-4 -11,-12l0 -105c0,-8 4,-12 12,-12l40 0c8,0 12,4 12,12l0 27 -19 0 0 -23 -25 0 0 95 25 0 0 -36 -14 0 0 -16 33 0 0 57z"/>
 </g>
</svg>
