<?xml version="1.0" encoding="UTF-8"?>
<!DOCTYPE svg PUBLIC "-//W3C//DTD SVG 1.1//EN" "http://www.w3.org/Graphics/SVG/1.1/DTD/svg11.dtd">
<!-- Creator: CorelDRAW X5 -->
<svg xmlns="http://www.w3.org/2000/svg" xml:space="preserve" width="1.34006cm" height="1.0613cm" style="shape-rendering:geometricPrecision; text-rendering:geometricPrecision; image-rendering:optimizeQuality; fill-rule:evenodd; clip-rule:evenodd"
viewBox="0 0 279 221"
 xmlns:xlink="http://www.w3.org/1999/xlink">
 <defs>
  <style type="text/css">
   <![CDATA[
    .str0 {stroke:#373435;stroke-width:14.6989}
    .fil0 {fill:#0096A2}
    .fil1 {fill:#FEFEFE;fill-rule:nonzero}
   ]]>
  </style>
 </defs>
 <g id="Camada_x0020_1">
  <metadata id="CorelCorpID_0Corel-Layer"/>
  <path class="fil0 str0" d="M57 7l166 0c27,0 49,22 49,49l0 108c0,27 -22,49 -49,49l-166 0c-27,0 -49,-22 -49,-49l0 -108c0,-27 22,-49 49,-49z"/>
  <path class="fil1" d="M135 163c0,8 -4,12 -12,12l-40 0c-8,0 -11,-4 -11,-12l0 -105c0,-8 4,-12 11,-12l40 0c8,0 12,4 12,12l0 30 -19 0 0 -25 -25 0 0 95 25 0 0 -27 19 0 0 32zm77 0c0,8 -4,12 -12,12l-39 0c-8,0 -12,-4 -12,-12l0 -31 19 0 0 26 23 0 0 -25 -38 -36c-3,-3 -4,-6 -4,-10l0 -28c0,-8 4,-12 12,-12l39 0c8,0 12,4 12,12l0 29 -19 0 0 -24 -23 0 0 23 38 36c3,3 4,6 4,10l0 31z"/>
 </g>
</svg>
