<?xml version="1.0" encoding="UTF-8"?>
<!DOCTYPE svg PUBLIC "-//W3C//DTD SVG 1.1//EN" "http://www.w3.org/Graphics/SVG/1.1/DTD/svg11.dtd">
<!-- Creator: CorelDRAW X5 -->
<svg xmlns="http://www.w3.org/2000/svg" xml:space="preserve" width="1.34006cm" height="1.06129cm" style="shape-rendering:geometricPrecision; text-rendering:geometricPrecision; image-rendering:optimizeQuality; fill-rule:evenodd; clip-rule:evenodd"
viewBox="0 0 279 221"
 xmlns:xlink="http://www.w3.org/1999/xlink">
 <defs>
  <style type="text/css">
   <![CDATA[
    .str0 {stroke:#373435;stroke-width:14.6989}
    .fil0 {fill:#FEFEFE}
    .fil1 {fill:#3A4483;fill-rule:nonzero}
   ]]>
  </style>
 </defs>
 <g id="Camada_x0020_1">
  <metadata id="CorelCorpID_0Corel-Layer"/>
  <path class="fil0 str0" d="M57 7l166 0c27,0 49,22 49,49l0 108c0,27 -22,49 -49,49l-166 0c-27,0 -49,-22 -49,-49l0 -108c0,-27 22,-49 49,-49z"/>
  <path class="fil1" d="M132 175l-53 0 0 -128 53 0 0 17 -33 0 0 37 29 0 0 17 -29 0 0 40 34 0 0 17zm77 0l-21 0 -14 -45 -14 45 -20 0 0 -1 24 -65c-15,-41 -23,-62 -22,-63l20 0 13 42 13 -42 20 0 0 1 -22 61 24 66z"/>
 </g>
</svg>
