<?xml version="1.0" encoding="UTF-8"?>
<!DOCTYPE svg PUBLIC "-//W3C//DTD SVG 1.1//EN" "http://www.w3.org/Graphics/SVG/1.1/DTD/svg11.dtd">
<!-- Creator: CorelDRAW X5 -->
<svg xmlns="http://www.w3.org/2000/svg" xml:space="preserve" width="1.34006cm" height="1.0613cm" style="shape-rendering:geometricPrecision; text-rendering:geometricPrecision; image-rendering:optimizeQuality; fill-rule:evenodd; clip-rule:evenodd"
viewBox="0 0 280 222"
 xmlns:xlink="http://www.w3.org/1999/xlink">
 <defs>
  <style type="text/css">
   <![CDATA[
    .str0 {stroke:#373435;stroke-width:14.7459}
    .fil0 {fill:#FAD328}
    .fil1 {fill:#078A4F;fill-rule:nonzero}
   ]]>
  </style>
 </defs>
 <g id="Camada_x0020_1">
  <metadata id="CorelCorpID_0Corel-Layer"/>
  <path class="fil0 str0" d="M57 7l167 0c27,0 49,22 49,49l0 108c0,27 -22,49 -49,49l-167 0c-27,0 -49,-22 -49,-49l0 -108c0,-27 22,-49 49,-49z"/>
  <path class="fil1" d="M143 175l-18 0 0 -63c0,-3 0,-8 1,-14l-17 66 -10 0 -17 -66c1,6 1,11 1,14l0 63 -19 0 0 -129 18 0 20 71c0,1 0,3 0,6 0,-1 0,-3 1,-6l20 -71 18 0 0 129zm80 -12c0,8 -4,12 -12,12l-41 0c-8,0 -12,-4 -12,-12l0 -117 19 0 0 112 26 0 0 -112 19 0 0 117z"/>
 </g>
</svg>
