<?xml version="1.0" encoding="UTF-8"?>
<!DOCTYPE svg PUBLIC "-//W3C//DTD SVG 1.1//EN" "http://www.w3.org/Graphics/SVG/1.1/DTD/svg11.dtd">
<!-- Creator: CorelDRAW X5 -->
<svg xmlns="http://www.w3.org/2000/svg" xml:space="preserve" width="1.34006cm" height="1.0613cm" style="shape-rendering:geometricPrecision; text-rendering:geometricPrecision; image-rendering:optimizeQuality; fill-rule:evenodd; clip-rule:evenodd"
viewBox="0 0 280 222"
 xmlns:xlink="http://www.w3.org/1999/xlink">
 <defs>
  <style type="text/css">
   <![CDATA[
    .str0 {stroke:#373435;stroke-width:14.7459}
    .fil0 {fill:#961621}
    .fil1 {fill:#FEFEFE;fill-rule:nonzero}
   ]]>
  </style>
 </defs>
 <g id="Camada_x0020_1">
  <metadata id="CorelCorpID_0Corel-Layer"/>
  <path class="fil0 str0" d="M57 7l167 0c27,0 49,22 49,49l0 108c0,27 -22,49 -49,49l-167 0c-27,0 -49,-22 -49,-49l0 -108c0,-27 22,-49 49,-49z"/>
  <path class="fil1" d="M135 117c0,8 -4,12 -12,12l-31 0 0 47 -19 0 0 -129 50 0c8,0 12,4 12,12l0 58zm-19 -5l0 -49 -24 0 0 49 24 0zm99 63l-20 0 -21 -60c0,0 0,-4 0,-12l19 0 0 -41 -24 0 0 112 -19 0 0 -129 51 0c8,0 12,4 12,12l0 47c0,5 -2,9 -5,11 -2,1 -6,1 -13,1l21 58z"/>
 </g>
</svg>
