<?xml version="1.0" encoding="UTF-8"?>
<!DOCTYPE svg PUBLIC "-//W3C//DTD SVG 1.1//EN" "http://www.w3.org/Graphics/SVG/1.1/DTD/svg11.dtd">
<!-- Creator: CorelDRAW X5 -->
<svg xmlns="http://www.w3.org/2000/svg" xml:space="preserve" width="1.72564cm" height="0.93598cm" style="shape-rendering:geometricPrecision; text-rendering:geometricPrecision; image-rendering:optimizeQuality; fill-rule:evenodd; clip-rule:evenodd"
viewBox="0 0 842 456"
 xmlns:xlink="http://www.w3.org/1999/xlink">
 <defs>
  <style type="text/css">
   <![CDATA[
    .str0 {stroke:white;stroke-width:9.75417;stroke-linecap:round;stroke-linejoin:round}
    .fil0 {fill:#003399}
    .fil1 {fill:white}
    .fil2 {fill:white;fill-rule:nonzero}
   ]]>
  </style>
 </defs>
 <g id="Camada_x0020_1">
  <metadata id="CorelCorpID_0Corel-Layer"/>
  <path class="fil0" d="M79 0l684 0c43,0 79,35 79,79l0 197c0,43 -35,79 -79,79l-255 0 -25 19c-17,13 -30,31 -37,51l-5 14c-3,10 -13,17 -24,17 -11,0 -20,-7 -24,-17l-5 -14c-7,-20 -20,-38 -37,-51l-25 -19 -248 0c-43,0 -79,-35 -79,-79l0 -197c0,-43 35,-79 79,-79z"/>
  <path class="fil1" d="M244 50c-21,-9 -46,-13 -74,-13 -28,0 -53,4 -75,13 -17,7 -26,16 -28,27l-12 82 0 112 25 0c0,16 3,26 8,32 5,6 11,6 16,0 6,-6 8,-17 8,-32l112 0c0,16 3,26 8,32 6,6 11,6 16,0 5,-6 8,-17 8,-32l28 0 0 -112 -13 -82c-2,-11 -11,-20 -28,-27z"/>
  <path class="fil1" d="M746 50c-21,-9 -46,-13 -74,-13 -28,0 -53,4 -74,13 -17,7 -26,16 -28,27l-12 82 0 112 25 0c0,16 3,26 8,32 5,6 11,6 16,0 6,-6 8,-17 8,-32l112 0c0,16 3,26 8,32 6,6 11,6 16,0 5,-6 8,-17 8,-32l28 0 0 -112 -13 -82c-2,-11 -11,-20 -28,-27z"/>
  <path class="fil0" d="M91 97l159 0c2,0 4,2 4,4l11 62c0,2 -1,4 -4,4l-183 0c-2,0 -4,-2 -4,-4l11 -62c0,-2 2,-4 4,-4z"/>
  <path class="fil0" d="M597 97l159 0c2,0 4,2 4,4l11 62c0,2 -1,4 -4,4l-183 0c-2,0 -4,-2 -4,-4l11 -62c0,-2 2,-4 4,-4z"/>
  <path class="fil0" d="M133 53l77 0c9,0 15,7 15,15 0,9 -7,15 -15,15l-77 0c-9,0 -15,-7 -15,-15 0,-9 7,-15 15,-15z"/>
  <path class="fil0" d="M638 53l77 0c9,0 15,7 15,15 0,9 -7,15 -15,15l-77 0c-9,0 -15,-7 -15,-15 0,-9 7,-15 15,-15z"/>
  <path class="fil0" d="M261 234c-3,3 -7,5 -12,5 -5,0 -8,-2 -11,-5 -3,-3 -5,-7 -5,-12 0,-5 2,-9 5,-12 3,-3 7,-5 11,-5 5,0 9,2 12,5 3,3 5,7 5,12 0,5 -2,9 -5,12z"/>
  <path class="fil0" d="M767 234c-3,3 -7,5 -12,5 -5,0 -8,-2 -11,-5 -3,-3 -5,-7 -5,-12 0,-5 2,-9 5,-12 3,-3 7,-5 11,-5 5,0 9,2 12,5 3,3 5,7 5,12 0,5 -2,9 -5,12z"/>
  <path class="fil0" d="M104 234c-3,3 -7,5 -12,5 -4,0 -8,-2 -12,-5 -3,-3 -5,-7 -5,-12 0,-5 2,-9 5,-12 3,-3 7,-5 12,-5 4,0 8,2 12,5 3,3 5,7 5,12 0,5 -2,9 -5,12z"/>
  <path class="fil0" d="M609 234c-3,3 -7,5 -12,5 -4,0 -8,-2 -12,-5 -3,-3 -5,-7 -5,-12 0,-5 2,-9 5,-12 3,-3 7,-5 12,-5 4,0 8,2 12,5 3,3 5,7 5,12 0,5 -2,9 -5,12z"/>
  <path class="fil2 str0" d="M324 177l49 62 0 -31 97 0 0 31 49 -62 -49 -62 0 31 -97 0 0 -31 -49 62zm24 31m24 15m49 -15m49 15m24 -15m0 -62m-24 -15m-49 15m-49 -15m-24 15"/>
 </g>
</svg>
