<?xml version="1.0" encoding="UTF-8"?>
<!DOCTYPE svg PUBLIC "-//W3C//DTD SVG 1.1//EN" "http://www.w3.org/Graphics/SVG/1.1/DTD/svg11.dtd">
<!-- Creator: CorelDRAW X5 -->
<svg xmlns="http://www.w3.org/2000/svg" xml:space="preserve" width="0.49571cm" height="0.58285cm" style="shape-rendering:geometricPrecision; text-rendering:geometricPrecision; image-rendering:optimizeQuality; fill-rule:evenodd; clip-rule:evenodd"
viewBox="0 0 123 145"
 xmlns:xlink="http://www.w3.org/1999/xlink">
 <defs>
  <style type="text/css">
   <![CDATA[
    .fil1 {fill:#003399}
    .fil0 {fill:white}
   ]]>
  </style>
 </defs>
 <g id="Camada_x0020_1">
  <metadata id="CorelCorpID_0Corel-Layer"/>
  <path class="fil0" d="M101 7c-11,-5 -25,-7 -40,-7 -15,0 -29,2 -40,7 -9,4 -14,9 -15,15l-7 44 0 60 13 0c0,8 1,14 4,17 3,3 6,3 9,0 3,-3 5,-9 5,-17l60 0c0,8 2,14 5,17 3,3 6,3 9,0 3,-3 4,-9 4,-17l15 0 0 -60 -7 -44c-1,-6 -6,-11 -15,-15z"/>
  <path class="fil1" d="M19 32l85 0c1,0 2,1 2,2l6 33c0,1 -1,2 -2,2l-98 0c-1,0 -2,-1 -2,-2l6 -33c0,-1 1,-2 2,-2z"/>
  <path class="fil1" d="M41 9l41 0c5,0 8,4 8,8 0,5 -4,8 -8,8l-41 0c-5,0 -8,-4 -8,-8 0,-5 4,-8 8,-8z"/>
  <path class="fil1" d="M110 105c-2,2 -4,3 -6,3 -2,0 -4,-1 -6,-3 -2,-2 -2,-4 -2,-6 0,-3 1,-5 2,-6 2,-2 4,-3 6,-3 2,0 5,1 6,3 2,2 3,4 3,6 0,3 -1,5 -3,6z"/>
  <path class="fil1" d="M26 105c-2,2 -4,3 -6,3 -2,0 -4,-1 -6,-3 -2,-2 -3,-4 -3,-6 0,-3 1,-5 3,-6 2,-2 4,-3 6,-3 2,0 4,1 6,3 2,2 3,4 3,6 0,3 -1,5 -3,6z"/>
 </g>
</svg>
