<svg xmlns="http://www.w3.org/2000/svg" width="66.56" height="103.68" viewBox="0 0 359 559" shape-rendering="geometricPrecision" text-rendering="geometricPrecision" image-rendering="optimizeQuality" fill-rule="evenodd" clip-rule="evenodd"><defs><style>.fil0{fill:#039}</style></defs><g id="Camada_x0020_1"><g id="_2591744901056"><path class="fil0" d="M151 462c-7-20-19-38-36-51l-42-32C31 346 5 296 3 242 3 145 82 66 179 66c98 0 177 79 177 176-3 54-28 104-71 137l-41 32c-17 13-30 31-36 51l-5 14c-4 10-13 17-24 17-10 0-20-7-23-17l-5-14z"/><path d="M245 123c-19-7-41-11-66-11-26 0-48 4-66 11-15 6-24 15-25 24l-11 73v99h22c0 14 2 23 7 29 5 5 10 5 15 0 5-6 7-15 7-29h100c0 14 2 23 7 29 5 5 10 5 15 0 4-6 7-15 7-29h24v-99l-12-73c-1-9-10-18-24-24z" fill="#fff"/><path class="fil0" d="M109 165h141c2 0 3 1 4 3l9 55c1 2-1 3-3 3H99c-3 0-4-1-4-3l10-55c0-2 2-3 4-3zM145 126h68c8 0 14 6 14 14 0 7-6 13-14 13h-68c-7 0-13-6-13-13 0-8 6-14 13-14zM259 286c-3 3-6 4-10 4s-8-1-10-4c-3-3-4-6-4-10 0-5 1-8 4-11 2-3 6-4 10-4s7 1 10 4 5 6 5 11c0 4-2 7-5 10zM120 286c-3 3-6 4-10 4s-8-1-10-4c-3-3-5-6-5-10 0-5 2-8 5-11 2-3 6-4 10-4s7 1 10 4 4 6 4 11c0 4-1 7-4 10z"/></g><path fill="none" d="M0 0h359v559H0z"/></g></svg>